<svg xmlns="http://www.w3.org/2000/svg" version="1.0" viewBox="0 0 700.000000 700.000000"><path fill="#000000" d="M469.8 59.1c-25.8 3.6-44.2 20.3-53.2 48.5-4.3 13.3-5.9 25.3-6 43.9-.1 23.5 1.7 39.7 6.6 59 1.1 4.4 2.2 8.8 2.4 9.8.2 1 .6 2.7.9 3.7 1.1 3.4-15.7 15.9-31.3 23.3-15.2 7.1-29.7 11.1-51.2 14.2-2.5.4-18.4.8-35.5 1l-31 .4-4.7-9.7c-6.6-13.7-12-21.4-21.8-31.2-9-9.1-18.3-15.8-29.6-21.4-32.5-16-71.9-14.4-103.4 4.3-18.5 11-33.4 27.4-43.1 47.1-3.9 8-7.8 21.2-9.3 31-1.7 11.6-1.2 44.5 1 64 1.4 13 5.2 33.1 7.3 39 .5 1.4 1.7 5.2 2.7 8.5 1.8 6.3 4.6 13 9.6 23.2 1.6 3.4 2.7 6.6 2.3 7.2-.7 1.2-.8 34.5-.1 42.1.3 2.5.7 8.3 1.1 13 .3 4.7.8 9.2 1 10 .2.8.7 4.4 1 8 .4 3.6 1 6.9 1.3 7.5.3.5.7 19.2.7 41.5.1 47.7.3 48.9 9 57.5 7.9 7.9 7.1 7.8 60.8 8l46.7.1v-2.1c0-4-3-12.2-6-16.3-3.3-4.6-8.9-8.5-13.5-9.6-1.6-.3-3.7-.8-4.5-1-.8-.3-2.3-.5-3.2-.5-1.7-.1-1.8-2.2-1.8-29v-28.9l10.2-6.8c8.8-5.8 24.9-17.2 29.8-21.1.8-.6 5.3-4.2 10-7.9 10.9-8.7 21.2-17.7 32.6-28.7l9.2-8.8 5.9 1.5c4.9 1.2 15.8 3.5 23.8 5 1.9.3 7.7 1.3 13.5 2.1 4.7.7 19.8 2.5 24.6 3 7.1.6 19.1 1.5 25.1 1.9 6 .4 7.3 1.1 7.3 3.5 0 5.3 11.5 34.3 21.5 54.1 9.4 18.8 24.9 46.1 31.9 56.5 1.3 1.8 2.6 5.4 2.9 8 .9 6.3 5.1 14.9 9 18.1 3.7 3.1 8.8 5.5 13.2 6.3 1.7.2 23.5.5 48.5.5l45.5.1-.3-3.5c-1-9-7.2-18.9-14.3-22.4-2.8-1.4-7.3-2.7-11.4-3.2-1.1-.1-2.2-.3-2.5-.3-.3-.1-.5-23.1-.5-51.3v-51.2l5-3c19.6-11.7 33-22.2 46.5-36.3 11.7-12.2 12.9-13.6 21.1-24.8 8.5-11.8 15.8-24 21.9-36.7 4.7-10 10.5-26 11.6-32.2.3-1.7.9-4.9 1.4-7.1 3.3-15 3.1-37.2-.4-54.5-1.3-5.9-4.6-17.3-6.2-20.7-.8-1.7-1.4-3.4-1.4-3.8 0-1.8-8.8-18.3-13.9-26.1l-5.9-8.9 9.7-3.3c21.4-7.4 24.4-8.6 28.6-11.4 4-2.6 10.4-10.8 11.2-14.1.1-.7.7-3.4 1.4-6 1.7-7.6.8-21-1.7-24.3-4.9-6.7-5.8-6.9-26.2-7-10.3-.1-19.9-.6-21.3-1.2-4.8-1.9-8.8-6.1-9.5-10-1-6.2-6.2-15.7-11-20.5-8.7-8.5-20.4-12.3-37.6-12.1l-8.8.1-.2-4.1c0-2.3-.2-4.6-.3-5.1l-.9-5.5c-3.2-19.2-14.7-35.9-28.2-41-6.3-2.3-16.7-3.1-25.6-1.9z"/></svg>