<svg xmlns="http://www.w3.org/2000/svg" version="1.1" xmlns:xlink="http://www.w3.org/1999/xlink" xmlns:svgjs="http://svgjs.com/svgjs" width="1000" height="1000"><rect width="1000" height="1000" rx="200" ry="200" fill="#967e72"></rect><g transform="matrix(3.515625,0,0,3.515625,50.00011555982587,49.99997600913048)"><svg xmlns="http://www.w3.org/2000/svg" version="1.1" xmlns:xlink="http://www.w3.org/1999/xlink" xmlns:svgjs="http://svgjs.com/svgjs" width="255.99998" height="256"><svg version="1.1" id="svg2" width="255.99998" height="256" viewBox="0 0 255.99999 256" sodipodi:docname="floof sheep.svg" inkscape:version="1.2.2 (b0a8486541, 2022-12-01)" xml:space="preserve" inkscape:export-filename="floof sheep-regular.svg" inkscape:export-xdpi="96" inkscape:export-ydpi="96" xmlns:inkscape="http://www.inkscape.org/namespaces/inkscape" xmlns:sodipodi="http://sodipodi.sourceforge.net/DTD/sodipodi-0.dtd" xmlns="http://www.w3.org/2000/svg" xmlns:svg="http://www.w3.org/2000/svg"><defs id="defs6"></defs><sodipodi:namedview id="namedview4" pagecolor="#ffffff" bordercolor="#000000" borderopacity="0.25" inkscape:showpageshadow="2" inkscape:pageopacity="0" inkscape:pagecheckerboard="0" inkscape:deskcolor="#d1d1d1" showgrid="false" inkscape:zoom="2.298097" inkscape:cx="138.15779" inkscape:cy="154.04049" inkscape:window-width="1856" inkscape:window-height="1011" inkscape:window-x="64" inkscape:window-y="32" inkscape:window-maximized="1" inkscape:current-layer="g613"></sodipodi:namedview><g id="g10" inkscape:groupmode="layer" inkscape:label="Page 1" transform="matrix(1.3333333,0,0,-1.3333333,0,1040)"><g id="g12" transform="matrix(0.04935717,0,0,0.04935717,-339.40198,556.3264)"><g id="g613"><path d="m 8801.36,1984.22 c 56.14,13.68 106.9,44.83 151.6,84.96 -31.17,-3.18 -63.18,-4.41 -95.98,-3.48 -86.55,-55.13 -179.97,-68.24 -234.27,42.53 -20.78,6.89 -41.76,14.72 -62.94,23.45 16.01,-43.92 35.92,-85.93 70.7,-118.71 45.99,-43.36 113.67,-42.7 170.89,-28.75" style="fill:#ffffff;fill-opacity:1;fill-rule:nonzero;stroke:none;stroke-width:0;stroke-dasharray:none;stroke-opacity:1" id="path20"></path><path d="m 9838.49,1761.94 c -10.59,-12.33 -23.62,-24.96 -38.33,-37.45 10.56,82.66 -17.4,160.33 -99.27,192.9 32.42,23.04 62.33,52.32 86.96,77.26 42.09,42.61 77.44,94.21 103.37,148.73 70.88,-112.98 31.86,-282.98 -52.73,-381.44 z m -96.31,-79.79 c -57.4,-36.3 -126.5,-65.72 -190.91,-73.68 2.39,34.92 0.21,70.34 -7.42,105.91 -13.54,63.11 -50.5,112.87 -98.13,136.82 27.49,11.2 56.61,18.51 80.2,23.05 14,2.7 28.93,5 44.19,6.53 17.91,-4.47 37.78,-4.45 59.46,1.12 63.16,-4.75 119.16,-31.69 125.89,-108.82 2.65,-30.28 -3.16,-60.92 -13.28,-90.93 z m -65.78,-135.61 c -47.38,-87.82 -108.15,-168.29 -207.8,-197.12 -8.58,-2.49 -16.83,-4.08 -24.93,-5.27 49.66,65.03 85.9,137.75 100.87,214.03 55.09,2.17 110.64,19.11 162.44,44.79 -10.31,-19.65 -20.95,-38.59 -30.58,-56.43 z m -295.08,-198.62 c -47.41,14.12 -82.53,53.65 -105.28,104.17 3.68,30 2.93,61.29 -3.35,93.74 -5.26,27.14 -13.41,50.34 -23.71,70.39 -37.72,6.74 -72.14,33.26 -95.89,86.74 -108.7,41.01 -265.53,-11.09 -381.12,-86.9 -23,-2.84 -45.97,-7.3 -68.55,-13.01 -7.87,26.99 -19.41,53.14 -34.7,77.95 85.67,3.29 174.07,25.32 257.77,61.96 71.4,-8.12 144.57,-1.6 213.88,18.11 -0.61,47.28 19.26,96.49 48.8,132.42 l 0.22,0.9 c 2.71,2.77 5.33,5.65 7.98,8.49 0.86,0.92 1.71,1.85 2.59,2.75 66.04,71.87 114.36,163.52 140.47,261.25 15.45,0.59 30.94,-0.49 46.15,-3.46 110.66,-21.62 4.95,-172.67 -31.75,-215.18 -5.99,-6.94 -12.24,-13.6 -18.64,-20.1 12.4,-9.46 23.17,-21.95 32.28,-36.43 36.86,36.32 67.99,78.68 91.32,126.53 8.06,-34.4 23,-67.94 44.36,-93.66 -45.48,-9.99 -89.29,-27.54 -124.76,-52.8 7.88,-16.54 13.94,-34.69 18.07,-53.42 8.98,-1.2 17.91,-3.56 26.6,-7.36 41.86,-18.31 61.03,-69.51 72.16,-109.75 8.63,-31.19 10.44,-62.95 7.42,-94.39 -48.26,3.03 -90.91,21.81 -119.75,63.59 -6.16,-10.29 -13.75,-18.8 -22.85,-24.86 -3.64,-2.43 -7.33,-4.7 -11.05,-6.88 36.88,-40.46 90,-69.76 138.31,-77.46 2.46,-0.39 4.95,-0.49 7.42,-0.81 -10,-41.28 -27.15,-81.2 -47.38,-117.6 -18.62,-33.5 -41.37,-65.19 -67.02,-94.92 z m -349.88,-220.29 c -33.45,-9.17 -69.2,-12.84 -104.91,-11.37 143.73,38.31 282.04,134.98 332.07,265.84 23.6,-32.49 54.28,-56.19 89.42,-70.23 -87.83,-87.46 -202.28,-152.91 -316.58,-184.24 z m -240.07,20.96 c -40.3,19 -75.45,46.19 -100.76,81.07 97.11,11.87 189.68,48.07 260.02,107.94 84.47,71.88 104.52,219.41 -17.58,264.18 -21.21,7.78 -43.34,12.75 -65.98,15.4 39.67,17.94 79.75,31.46 115.39,40.58 85.08,21.79 167.66,9.12 214.88,-60.1 2.6,-50.01 12.37,-99.21 24.49,-140.18 1.14,-3.87 2.6,-7.44 3.88,-11.19 -10.43,-49.52 -37.2,-96.48 -70.01,-135.61 -88.85,-105.98 -227.91,-160.87 -364.33,-162.09 z m -206.73,64.8 c 4.36,4.1 8.72,8.2 12.89,12.46 13.02,-0.48 26.06,-0.67 39.07,-0.28 9.03,-16.18 19.48,-31.79 31.67,-46.45 4.1,-4.93 8.46,-9.47 12.81,-14.04 -32.77,11.18 -66.34,27.75 -96.44,48.31 z m 132.02,302.48 c 17.29,18.14 37.07,34.66 58.36,49.57 55.95,8.29 115.32,7.14 163.18,-21.76 109.34,-66.02 -34.44,-186.76 -94.19,-218.48 -55.32,-29.37 -117.05,-43.91 -179.35,-48.37 -3.16,8 -5.85,16.3 -8.08,24.88 40.13,65.56 61.6,140.48 60.08,214.16 z m -209.13,-227.93 c -36.22,53.74 -41.37,117.04 18.3,178.6 36.61,37.78 89.52,59.08 141.55,74.17 0.4,-3.78 0.71,-7.57 0.97,-11.37 -6.08,-6.81 -11.72,-13.6 -16.79,-20.35 -45.42,-60.53 -58.73,-131.46 -45.88,-199.03 -4.26,-6.09 -8.65,-12.1 -13.3,-17.89 -4.21,-5.25 -8.62,-10.37 -13.14,-15.42 -23.36,1.73 -47.47,5.48 -71.71,11.29 z m -389.38,-90.89 c -114.55,89.99 -171.86,251.72 -166.77,398.47 67.28,-77.22 156.49,-143.87 256.58,-162.98 59.32,-99.03 159.57,-162.03 271.46,-190.13 7.58,-11.14 15.89,-21.6 24.94,-31.34 -115.42,-79.14 -271.82,-103.89 -386.21,-14.02 z m -273.64,742.5 c 19.57,-34.95 42.29,-66.97 68,-94.3 15.83,-16.82 32.01,-28.69 48.3,-36.55 -17.06,-27.97 -30.11,-58.37 -39.49,-90.15 -41.91,67.84 -68.21,143.57 -76.81,221 z m -24.83,226.98 c -4.92,26.13 -8.13,52.53 -9.55,79.03 7.59,-14.25 15.59,-28.3 24.16,-42.05 -5.4,-12.14 -10.19,-24.51 -14.61,-36.98 z m -1.36,210.11 c 26.02,137.01 155.71,309.47 305.82,305.39 -5.48,-14.49 -10.13,-29.63 -13.55,-45.75 -12.6,-59.44 -6.46,-121.65 3.18,-181.59 -40.89,-8.49 -83.51,-28.82 -121.31,-54.98 -53.62,-37.11 -98.48,-87.96 -132.16,-145.55 -17.66,31.69 -32.43,65.21 -45.59,98.77 1.13,7.91 2.12,15.84 3.61,23.71 z m 343.81,-101.15 c -6.1,-65.21 5.76,-134.37 25.12,-199.64 -2.08,-0.7 -4.11,-1.49 -6.24,-2.14 -93.95,-28.68 -195,28.17 -257.99,93.47 -11.75,12.18 -22.28,25.42 -32.24,39.13 32.67,64.53 81.97,119.86 141.34,160.94 27.13,18.78 57.38,33.91 89.42,41.85 7.99,-45.86 16.83,-94.26 40.59,-133.61 z m 39.12,122.17 c -1.85,-3.08 -3.82,-6.05 -5.58,-9.21 -5.04,-9.04 -9.42,-18.32 -13.28,-27.77 -1.31,5.7 -2.53,11.27 -3.7,16.58 -2.66,12.03 -5.25,24.11 -7.71,36.23 12.01,-2.18 21.99,-7.78 30.27,-15.83 z m 1.63,-369.48 c -0.86,-1.98 -1.61,-4.01 -2.49,-5.98 -8.04,-17.87 -19.27,-39.38 -33.01,-61.14 -47.8,-14.05 -93.3,-38.11 -133.53,-69.51 -15.79,-12.32 -29.82,-26.09 -42.5,-40.83 -2.86,0.95 -5.73,2.03 -8.61,3.29 -73.27,32.11 -111.34,140.45 -136.01,212.38 4.46,29.83 11.6,59.43 21.9,88.41 78.38,-96.6 200.06,-155.53 325.51,-128.72 2.97,0.64 5.75,1.61 8.64,2.37 z m 42.53,180.52 c -1.19,-34.08 -6.3,-68 -14.89,-101.07 -9.85,38.09 -16.53,77.14 -17.93,116.02 10.63,-6.62 21.6,-11.55 32.82,-14.95 z m -23.24,114.44 c 2,8.01 4.5,15.71 7.29,23.23 8.91,-28.95 12.29,-61.03 14.48,-83.25 l 0.01,-0.09 c -11.8,4.4 -21.3,11.51 -29.02,20.41 1.62,13.34 3.98,26.59 7.24,39.7 z m 108.5,-519.78 c -28.29,-11.05 -54.75,-26.44 -77.57,-45.93 -84.14,-71.87 -106.03,-171.1 -72.33,-267.15 -86.69,30.63 -166.58,103.64 -222.06,174.76 0.44,2.41 0.71,4.89 1.19,7.28 9.1,45.59 28.21,87.83 54.64,124.25 69.06,0.98 135.49,60.97 181.49,121.98 16.15,3.7 32.7,5.98 49.52,6.81 23.58,-48.3 52.27,-88.86 85.12,-122 z m -62.06,255.8 c 23.69,16.75 43.91,38.14 60.72,62.45 0.69,-4.45 1.4,-8.9 2.23,-13.33 -2.23,-55.35 13.42,-110.11 45.07,-157.2 -1.52,0.66 -2.95,1.47 -4.49,2.09 -31.2,12.69 -63.09,19.36 -94.91,21.13 -6.19,13.9 -11.92,27.9 -17.2,41.81 -1.18,3.11 -2.32,6.27 -3.48,9.4 4.46,11.06 8.41,22.3 12.06,33.65 z m 24.81,143.55 c 8.7,0.32 17.43,1.34 26.16,2.95 -7.88,-20.07 -18.13,-38.68 -30.56,-55.44 2.31,17.42 3.77,34.93 4.4,52.49 z m 141.54,-310.16 c 37.16,0 102.26,-55.92 153.35,-121.81 44.22,-20.02 91.44,-32.71 139.88,-38.43 -31.33,-4.5 -62.69,-6.38 -93.68,-5.26 -13.12,14.71 -28.12,28.57 -44.65,41.63 49.95,-65 85.95,-139.17 67.98,-178.87 -29.63,-65.48 -98.45,-106.01 -158.72,-82.24 -55.12,-52.12 -76.62,-123.69 -51.17,-201.29 -67.98,25.61 -131.98,66.62 -176.14,120.71 l 2.43,-0.03 c 76.82,2.44 146.87,41.33 195.05,98.64 -3.27,2.74 -6.49,5.63 -9.64,8.86 -7.56,7.76 -15.38,18.54 -23.11,31.35 -12.97,-17.8 -28.71,-33.97 -47.36,-47.65 -48.86,-35.84 -99.93,-46.89 -150.08,-41.43 -16.43,32.12 -26.24,67.59 -26.97,106.19 -1.44,76.66 60.71,136.58 123.74,168.81 11.53,5.9 23.37,10.4 35.33,13.9 -2.43,23.66 -2.32,45.82 1.05,64.87 -27.4,26.58 -50.04,58.13 -69.01,91.78 3.79,-0.59 7.58,-1.18 11.38,-1.94 33.54,-6.67 62.01,-20.07 85.49,-38.12 9.22,6.53 20.64,10.33 34.85,10.33 z m 304.05,-89.32 c 17.86,-10.19 36.3,-19.06 55.16,-26.75 -55.56,0.86 -110.87,11.21 -162.69,30.93 35.92,-5.09 72.27,-6.26 107.53,-4.18 z m 293.19,107.94 c -1.99,-18.2 -2.5,-36.51 -1.46,-54.73 -34.16,-23.8 -70.36,-45.04 -107.91,-63.13 -32.18,4.47 -63.85,12.07 -94.32,23.09 71.9,17.22 142.5,50.1 203.69,94.77 z m 61.44,51.95 c 21.53,21.12 40.92,43.98 57.92,68.15 0.98,-22.02 1.34,-46.51 0,-70.89 -22,-23.42 -45.95,-45.72 -71.49,-66.65 1.54,23.68 6.2,46.93 13.57,69.39 z m 114.62,156.47 c 19.94,14.68 42.39,26.44 66.04,34.61 -8.17,-23.27 -17.94,-45.56 -29.11,-66.22 -13.03,-24.09 -28.37,-47.74 -45.6,-70.71 -0.06,30.47 -0.97,61.59 -3.42,92.74 3.99,3.24 7.94,6.52 12.09,9.58 z m 285.31,84.63 c -9.78,-13.97 -18.17,-28.96 -24.64,-44.96 -10.07,17.79 -25.67,33.11 -47.85,44.24 l -0.47,0.21 c 23.95,-2.82 48.78,-2.41 72.96,0.51 z m 69.05,5.71 c 10.15,9.64 21.42,17.28 33.33,23.49 3.23,1.52 6.44,3.11 9.64,4.71 63.19,27.54 143.63,13.33 201.69,-17.55 18.46,-9.82 34.42,-21.43 48.33,-34.33 -43.37,-88.29 -155.24,-235.75 -245.08,-251.95 -9.97,0.36 -20.09,0.37 -30.38,-0.03 -28.88,5.88 -53.87,30.11 -71.19,80.66 -23.49,68.52 2.86,146.74 53.66,195 z m 223.43,323.79 c -0.82,4.69 -2.06,9.32 -3.2,13.96 32.42,-11.96 61.53,-31.23 83.47,-60.63 52.41,-70.24 32.05,-176.27 7.27,-255.17 -44.31,39.9 -103.19,65.79 -176.37,69.4 64.37,59.65 104.81,140.75 88.83,232.44 z m 86.87,19.12 c -32.1,29.72 -71.49,46.42 -113.87,54.76 -35.01,63.51 -97.63,119.49 -169.61,157.97 2.09,-21.93 3.58,-43.6 4.41,-64.85 39.04,-26.34 73.16,-56.82 97.6,-86.35 -34.02,0.48 -68.46,-2.83 -101.66,-7.88 -7.53,-43.77 -23.95,-90.83 -48.46,-138.32 -5.88,-35.77 -24.33,-68.32 -59.14,-94.2 -18.54,-24.89 -39.21,-49.34 -61.86,-72.92 55.42,2.21 105.14,36.85 137.81,83.65 36.01,51.59 38.33,113.37 24.54,172 24.35,3.27 48.26,5.38 70.63,6.76 23.59,1.46 47.86,1.05 71.63,-1.99 45.69,-106.06 -27.31,-218.26 -128.4,-275.4 -10.9,-4.35 -21.32,-9.66 -31.35,-15.58 -49.38,-21.17 -102.88,-29.04 -151.33,-17.31 -11.69,2.83 -22.04,6.65 -31.28,11.19 -72.72,-66.23 -161.98,-122.84 -264.51,-158.56 -32.59,-37.18 -57.28,-81.42 -72,-128.68 -79.33,-71.99 -188.95,-113.52 -295.23,-123.55 -5.36,3.27 -10.69,6.62 -15.91,10.14 -14.97,10.08 -29.34,0.81 -34.3,-12.35 -4.77,0 -9.58,-0.16 -14.3,-0.03 -79.06,2.2 -162.99,29.05 -222.92,78.75 -42.58,55.01 -70.59,121.39 -82.2,190.26 2.96,34.52 14.03,65.63 30.69,93.62 -28.01,20.78 -53.23,43.17 -75.85,66.92 -1.8,-6.86 -3.39,-13.75 -4.78,-20.66 -12.62,-3.09 -25.52,-4.79 -38.46,-4.86 -1.74,29.58 -5.68,58.98 -12.03,87.7 -0.62,2.8 -1.39,5.36 -2.08,8.05 -19.15,27.59 -35.66,56.35 -49.85,85.92 l -0.94,-1.07 c -18.92,14.24 -41.19,21.31 -65.19,22.76 -10.14,63.07 -13.33,126.76 1.74,189.47 -5.03,30.82 -8.47,61.58 -10.59,91.97 -2.64,-4.01 -5.28,-8.02 -7.73,-12.18 -75.55,5.05 -156,-24.07 -214.75,-71.62 -72.29,-58.5 -120.43,-135.26 -147.04,-220.35 -27.69,83.29 -42.61,168.02 20.77,242.19 50.72,59.36 131.5,93.94 200.92,125.46 47.2,21.43 95.95,39.37 145.55,54.59 0.54,18.26 1.47,36.13 2.68,53.6 -43.69,-13.9 -86.36,-29.7 -127.21,-45.99 -122.06,-48.66 -271.32,-114.83 -312.27,-251.53 -21.06,-70.33 7.53,-149.08 30.17,-214.97 6.18,-17.99 12.69,-35.86 19.58,-53.56 -2.78,-20.71 -4.59,-41.65 -5.19,-62.77 -2.02,-71.61 10.14,-151.53 34.84,-227.24 -15.6,-145.22 29.84,-285.7 112.92,-403.7 -6.95,-48.86 -6.91,-98.79 -1.06,-146.01 16.42,-132.52 84.26,-280.3 196.21,-358.86 124.05,-87.05 271.56,-65.17 398.55,4.91 14.12,7.79 27.64,16.37 40.57,25.61 60.57,-45.98 138.61,-70.41 212.88,-77.71 7.2,-0.71 14.49,-1.2 21.85,-1.52 82.56,-36.64 180.41,-38.82 268.46,-18.52 127.02,29.29 261.73,109.89 360.5,218 35.76,-3.55 73.96,1.29 112.56,15.65 134.1,49.89 211.41,208.51 261.71,332.3 35.29,24.61 67.33,52.4 94.07,81.06 120.55,129.2 131.09,336.34 37.75,463.55 44.25,118.43 62.7,268.8 -38.24,362.28" style="fill:#ffffff;fill-opacity:1;fill-rule:nonzero;stroke:none;stroke-width:0;stroke-dasharray:none;stroke-opacity:1" id="path22"></path><path d="m 9206.55,3367.31 c -1.26,-2 -2.39,-4.03 -3.73,-6 1.82,2.4 3.47,4.95 5.22,7.41 l -1.49,-1.41" style="fill:#52423b;fill-opacity:1;fill-rule:nonzero;stroke:none" id="path68"></path><path d="m 8197.06,3441.84 c 11.34,-19.91 25.5,-39.18 42.88,-52.78 -24.53,33.97 -35.72,58.01 -35.72,58.01 0,0 -2.52,-1.95 -7.16,-5.23" style="fill:#52423b;fill-opacity:1;fill-rule:nonzero;stroke:none" id="path70"></path><path d="m 8694.26,2868.02 c 0,-54.55 -44.23,-98.78 -98.78,-98.78 -54.56,0 -98.78,44.23 -98.78,98.78 0,54.56 44.22,98.79 98.78,98.79 54.55,0 98.78,-44.23 98.78,-98.79 z m 395.13,185.22 c 54.56,0 98.78,-44.22 98.78,-98.78 0,-54.56 -44.22,-98.78 -98.78,-98.78 -54.55,0 -98.78,44.22 -98.78,98.78 0,54.56 44.23,98.78 98.78,98.78 z m -935.52,-313.07 c 2.12,-30.39 5.56,-61.15 10.59,-91.97 11.67,-71.64 31.91,-143.5 64.39,-211.16 14.19,-29.57 30.7,-58.33 49.85,-85.92 16.96,-24.43 36.06,-47.9 57.35,-70.23 22.62,-23.75 47.84,-46.14 75.85,-66.92 39.13,-29.03 83.62,-54.95 134.42,-76.76 4.5,-1.93 8.97,-3.68 13.45,-5.53 21.18,-8.73 42.16,-16.56 62.94,-23.45 81.57,-27.09 159.92,-40.4 234.27,-42.53 32.8,-0.93 64.81,0.3 95.98,3.48 58.11,5.94 113.31,18.58 165.11,36.63 102.53,35.72 191.79,92.33 264.51,158.56 13.12,11.95 25.74,24.18 37.75,36.68 22.65,23.58 43.32,48.03 61.86,72.92 23.1,31 42.88,62.69 59.14,94.2 24.51,47.49 40.93,94.55 48.46,138.32 2.94,17.12 4.59,33.76 4.75,49.69 0.15,14.58 -0.11,29.46 -0.69,44.54 -0.83,21.25 -2.32,42.92 -4.41,64.85 -25.06,263.17 -133.22,561.33 -133.22,561.33 0,0 142.61,-248.38 344.21,-125.88 201.57,122.5 89.84,208.11 -172.53,287.67 -262.37,79.56 -262.37,79.56 -262.37,79.56 0,0 -16.86,-33.83 -52.29,-81.86 -26.69,-105.56 -97.2,-238.03 -208.11,-246.35 -23.64,-1.77 -46.22,1.34 -67.71,7.82 -49.74,-25.91 -105.66,-47.72 -167.84,-62.73 -96.89,-37.46 -254.27,-51.66 -348.1,3.23 -99.4,29.81 -172.34,82.31 -222.95,132.38 -60.32,-0.79 -108.77,42.19 -141.9,95.51 -2.43,-1.39 -5,-2.83 -7.6,-4.28 1.38,-18.4 -21.58,-27.56 -37.39,-19.21 -73.45,-34.76 -184.42,-70.42 -310.16,-53.4 -224.96,30.44 21.87,-619.72 405.94,-125.42 0,0 -41.21,-129.72 -53.15,-302.08 -1.21,-17.47 -2.14,-35.34 -2.68,-53.6 -1.11,-38.12 -0.54,-77.77 2.28,-118.09" style="fill:#52423b;fill-opacity:1;fill-rule:nonzero;stroke:none" id="path72"></path><path d="m 8496.7,2868.02 c 0,-54.55 44.22,-98.78 98.78,-98.78 54.55,0 98.78,44.23 98.78,98.78 0,54.56 -44.23,98.79 -98.78,98.79 -54.56,0 -98.78,-44.23 -98.78,-98.79" style="fill:#ffffff;fill-opacity:1;fill-rule:nonzero;stroke:none" id="path112"></path><path d="m 9089.39,2855.68 c 54.56,0 98.78,44.22 98.78,98.78 0,54.56 -44.22,98.78 -98.78,98.78 -54.55,0 -98.78,-44.22 -98.78,-98.78 0,-54.56 44.23,-98.78 98.78,-98.78" style="fill:#ffffff;fill-opacity:1;fill-rule:nonzero;stroke:none" id="path122"></path><path d="m 8178.34,3681.49 c 22.73,23.69 47.13,23.36 70.72,9.37 13.39,-49.92 45.54,-93.72 91.83,-120.87 l 1.28,-2.66 c -3.84,-4.96 -7.69,-9.92 -11.5,-14.88 -21.59,-28.15 -59.44,-69.08 -66.37,-104.88 -5.18,-26.8 -1.9,-51.86 7.34,-74.98 -11.6,3.18 -22.13,8.98 -31.7,16.47 -17.38,13.6 -31.54,32.87 -42.88,52.78 -8.34,14.63 -15.19,29.57 -20.67,42.83 -18.08,43.72 -31.79,90.81 -35.71,137.87 8.58,21.49 20.91,41.5 37.66,58.95 z m -8.15,90.17 c 23.52,41.59 57.7,61.86 95.58,67.98 -1.11,-2.17 -2.39,-4.19 -3.43,-6.4 -14.55,-30.6 -20.86,-62.51 -20.27,-93.56 -26.17,6.99 -53.68,5.25 -81.14,-9.58 -3.86,-2.09 -7.52,-4.39 -11.08,-6.79 4.87,16.5 11.48,32.68 20.34,48.35 z m 152.26,67.72 c 37.23,-5.55 74.76,-20.45 106.94,-39.04 35.22,-20.34 64.59,-51.8 80.84,-88.99 -40.27,-19.05 -76.73,-47.07 -108.87,-76.8 -7.37,-6.82 -14.35,-14.03 -21.14,-21.42 -20.23,36.72 -50.63,75.34 -86.31,100.97 -4.99,41.93 6.64,87.52 28.54,125.28 z m 173.34,109.94 c -21.79,-33.47 -33.77,-70.73 -32.64,-108.79 -31.58,21.02 -67.81,36.27 -105.05,44.27 36.76,34.99 86.12,55.5 137.69,64.52 z m 15.37,-82.66 c 5.08,34.84 24.49,63.89 50.18,88.25 19.77,-0.05 39.19,-1.56 57.64,-4.45 94.84,-14.86 148.03,-95.73 96.04,-181.85 -10.41,-17.24 -22.86,-29.31 -36.4,-37.04 -30.24,5.9 -61.97,6.72 -92.78,2.62 -46.29,24.3 -82.62,77.98 -74.68,132.47 z m 165.64,162.19 c 53.03,25.79 114.34,44.16 169.88,15.34 -30.49,-13.59 -56.95,-32.38 -75.46,-57.63 -12.65,-17.27 -19.26,-35.88 -21.22,-54.88 -31.4,34.56 -78.58,58.61 -128.14,67.85 18.66,11.16 37.58,20.88 54.94,29.32 z m 264.08,-124.58 c -28.1,-32.81 -40.71,-75.92 -40.04,-119.98 -45.62,9.42 -74.94,60.05 -89.29,99.58 -26.7,73.53 20.05,106.66 78.04,121.74 23.02,-30.63 39.09,-70.15 51.29,-101.34 z m 50.7,113.79 c 90.53,2.78 181.18,-23.85 206.98,-113.43 -59.28,47.54 -134.23,72.31 -204.83,39.42 -4.56,-2.13 -8.65,-4.68 -12.86,-7.12 -11.31,27.03 -24.87,53.06 -40.42,77.69 18.26,2.03 35.91,2.97 51.13,3.44 z m 204,-212.57 c -9.84,1.43 -20.26,2.23 -31.47,2.17 -62.67,-0.34 -127.44,-26.4 -173.62,-69.52 -3.39,2.03 -6.6,4.18 -10.24,6.02 23.41,12.21 39.66,33.55 36.03,62.34 -3.57,28.4 -9.85,56.54 -18.39,84.03 1.67,1.2 3.29,2.43 5.06,3.55 70.87,44.76 147.25,-1.83 199.29,-62.94 -1.64,-8.56 -3.74,-17.14 -6.66,-25.65 z m 73.8,-115.23 c 6.05,-54.25 -9.69,-108.17 -44.82,-149.81 -16.51,43.75 -48.63,82.16 -94.65,105.88 l -1.48,0.68 c 40.3,29.42 75.38,69.66 95.24,102.07 22.96,-11.49 37.34,-32.77 45.71,-58.82 z m -62.83,-322.95 c 22.81,36.1 32.57,76.4 30.23,115.76 12.36,10.56 23.3,22.15 32.81,34.65 -0.97,-5.02 -1.97,-9.81 -2.96,-14.25 -9.88,-44.22 -29.54,-93.76 -58.59,-134.75 -1.75,-2.46 -3.4,-5.01 -5.22,-7.41 1.34,1.97 2.47,4 3.73,6 z m -154.49,295.18 c -6,17.02 -14.32,32.04 -25.16,45.02 40.64,32.28 98.4,48.64 145.58,50.55 -28.71,-45.51 -73.03,-82.93 -120.42,-95.57 z m 11.02,-51.23 c 33.4,-0.09 64.04,-16.99 89.25,-42.32 19.37,-19.45 30.47,-40.71 35.2,-62.49 l -0.7,-0.55 c -39.62,-27.97 -87.67,-29.31 -127.89,-12.9 8.35,38.71 8,82.97 4.14,118.26 z m -49.03,-303.14 c 21.8,39.42 31.41,83.7 21.48,127.51 1.62,2.18 2.99,4.17 4.05,5.88 0.96,1.56 1.8,3.25 2.7,4.88 45.43,-17.07 96.69,-18.52 139.27,1.16 1.77,0.82 3.33,1.81 5.06,2.66 -12.45,-53.52 -55.05,-103.7 -102.43,-131.67 -15.65,-9.25 -32.15,-15.97 -49.17,-20.61 -7.04,2.89 -14.04,6.31 -20.96,10.19 z m -34.89,274.31 c 11.8,6.52 23.72,12.22 34.95,17.08 l 0.1,-1.08 c 1.48,-23.77 1.7,-49.69 -1.79,-74.78 -16.14,16.07 -28.02,36.09 -33.26,58.78 z m 6.83,-214.32 c -2.27,-11.86 -5.93,-22.71 -10.39,-32.95 -11.86,10.12 -22.94,21.39 -32.87,33.4 14.47,1.06 30.59,9.44 45.57,20.47 -0.31,-6.84 -0.94,-13.78 -2.31,-20.92 z m -40.13,-77.63 c -30.54,2.22 -61.07,8.56 -90.17,17.04 8.25,11.39 12.98,24.09 11.84,38.28 -3.57,44.73 -26.86,77.81 -60.02,101.03 14.78,17.95 25.73,39.47 31.41,63.44 1.5,0.24 2.97,0.38 4.47,0.59 1.21,-3.67 2.51,-7.3 3.81,-10.91 -1.32,-4.96 -2.46,-9.93 -3.21,-14.92 -9.22,-61.61 36.84,-116.29 75.29,-158.38 9.95,-10.88 20.6,-21.14 31.82,-30.59 -1.67,-1.93 -3.49,-3.72 -5.24,-5.58 z m -202.85,-80.92 c -38.24,-3.83 -80.01,-5.72 -119.38,-0.06 37.46,5.02 74.4,14.81 109.85,27.51 19.13,6.85 49.62,17.7 76.74,33.09 25.13,-9.71 51.13,-17.09 77.5,-21.89 -44.93,-22.73 -98,-33.97 -144.71,-38.65 z m -251.52,79.63 c -38.63,65.6 26.89,120.36 81.44,142.04 2.97,1.18 6.01,2.02 9.02,3.02 12.19,-11.96 27.22,-22.13 45.34,-29.74 15.24,-6.4 30.47,-10.27 45.41,-12.01 l 0.27,-1.59 c 10.59,-45.08 40.85,-72.75 77.54,-93.43 -50.6,-24.79 -106.71,-37.91 -162.63,-41.8 -24.92,-1.73 -49.82,-0.21 -74.09,4.25 -8.26,8.48 -15.76,18.16 -22.3,29.26 z m 295.6,298.37 c 5.07,-13.32 7.48,-26.13 7.89,-38.31 -21.45,-7.11 -41.63,-16.99 -58.95,-29.49 -11.82,-8.53 -23.69,-19.95 -34.01,-33.07 -33.19,5.42 -67.01,5.92 -97.03,2.3 -1.74,2.52 -3.47,5.06 -5.09,7.81 -51.35,86.8 31.24,143.9 108.71,175.5 34.16,-15.67 62.6,-43.03 78.48,-84.74 z m -7.4,158.93 c -8.5,-1.92 -17.19,-4 -25.94,-6.21 6.79,9 12.86,18.76 17.95,29.34 8.2,17 13.06,33.45 15.24,49.25 17.38,-23.33 39.37,-43.77 62.85,-58.94 -24.32,-3.3 -48.22,-8.51 -70.1,-13.44 z m -23.8,-273.51 c 6.54,6.21 13.9,11.47 21.7,16.08 -4.63,-6.72 -10.08,-12.79 -16.09,-18.22 -1.87,0.72 -3.72,1.46 -5.61,2.14 z m 10.1,-61.41 c 4.06,-2.48 8.11,-5 12.14,-7.59 30.07,-16.11 35.83,-41.15 17.46,-75.04 -33.3,15.21 -62.29,37.62 -69.43,66.73 14.09,3.41 27.49,8.77 39.83,15.9 z m 160.17,197.59 c -8.49,-6.53 -16.56,-13.53 -24.11,-20.92 -0.9,0.27 -1.71,0.62 -2.69,0.82 -13.29,2.61 -26.58,5.22 -39.87,7.84 -8.5,1.67 -15.94,-0.44 -21.46,-4.79 -10.42,43.74 -35.12,77.33 -67.86,101.05 2.28,0.63 4.53,1.24 6.7,1.81 44.29,11.6 94.86,20.55 137.95,14.76 6,-16.55 13.67,-32.47 23.3,-47.07 -6.6,-16.82 -10.74,-34.72 -11.96,-53.5 z m 23.5,183.79 c 0.51,17.38 3.94,34.44 10.54,50.05 3.48,-20.16 2.1,-38.95 -10.54,-50.05 z m 29.76,-350.55 -0.53,-0.66 c -31.52,-36.11 -60.11,10.91 -79.04,60.08 0.63,2.18 1.32,4.34 2.14,6.46 35.96,-9.39 63.83,-33.27 77.43,-65.88 z m -543.58,156.3 c 18.29,17.36 37.85,33.39 58.84,47.66 8.42,5.72 17.39,10.71 26.56,15.35 -3,-41.03 -43.33,-60.33 -85.4,-63.01 z m -73.38,-261.26 c 71.3,38.99 67.25,134.46 45.62,207.86 50.62,-6.97 101.28,16.21 134.41,53.91 20.79,23.65 27.42,51.99 25.33,80.5 2.33,0.65 4.62,1.42 6.97,1.99 10.38,-3.61 21,-5.98 31.71,-7.17 -1.57,-1.3 -3.31,-2.44 -4.84,-3.78 -54.8,-48.1 -75.54,-130.32 -48.79,-193.54 -89.95,-31.66 -136.26,-115.11 -108.64,-195.42 -30.17,13.72 -57.98,32.4 -81.77,55.65 z m -33.99,40.42 -1.71,2.36 c -32.52,48.44 6.65,95.45 36.92,134.58 5.67,-16.65 9.18,-30.67 9.9,-39.71 3.27,-40.91 -11.3,-80.69 -45.11,-97.23 z m -179.44,34.11 c -0.17,2.32 -0.59,4.72 -1.6,7.31 -4.53,11.58 -8.42,23.67 -11.69,36.04 6.08,-13.29 13.06,-26.46 20.89,-39.07 33.13,-53.32 81.58,-96.3 141.9,-95.51 1.99,0.03 3.93,-0.1 5.95,0.02 45.18,-50.94 118.33,-87.12 180.15,-103.65 l 0.23,-0.27 c 10.59,-11.07 22.95,-20.48 36.62,-28.48 93.83,-54.89 251.21,-40.69 348.1,-3.23 8.5,3.29 16.58,6.73 24.06,10.34 24.17,11.67 47.22,27.45 67.57,46.15 23.91,0.2 47.55,2.81 70.55,7.84 1.86,-0.62 3.78,-1.04 5.66,-1.6 21.49,-6.48 44.07,-9.59 67.71,-7.82 110.91,8.32 181.42,140.79 208.11,246.35 4.37,17.28 7.61,33.86 9.62,49.03 7.14,54 7.38,111.74 -6.73,160.11 -2.83,26.88 -9.29,53.88 -19.8,80.07 -9.64,24.02 -23.85,48.47 -41.45,71.38 5.23,91.92 -53.56,178.39 -147.89,208.48 -56.42,17.99 -134.82,22.79 -204.45,7.14 -91.9,85.34 -229.99,30.27 -327.65,-34.92 -10.65,-7.11 -20.68,-14.79 -30.09,-22.91 -93.85,-3.34 -185.78,-42.24 -245.08,-113.57 -36.46,0.02 -72.01,-7.63 -103.18,-24.47 -83.65,-45.19 -107.91,-133.2 -104.56,-222.1 -27.53,-76.05 -16.4,-176.57 7.82,-238.48 2.52,-6.44 6.83,-10.74 11.84,-13.39 15.81,-8.35 38.77,0.81 37.39,19.21" style="fill:#ffffff;fill-opacity:1;fill-rule:nonzero;stroke:none;stroke-width:0;stroke-dasharray:none;stroke-opacity:1" id="path136"></path><path d="m 7669.39,1250.46 c 0,-111.13 185.22,-172.87 271.65,-98.78 86.44,74.08 -49.39,209.91 -49.39,209.91 -74.08,37.04 -222.26,0 -222.26,-111.13" style="fill:#52423b;fill-opacity:1;fill-rule:nonzero;stroke:none" id="path156"></path><path d="m 9756.17,1398.63 c -96.27,25.34 -160.52,-135.82 -148.17,-197.56 12.35,-61.74 160.52,-123.48 246.96,-98.78 86.43,24.69 135.82,234.6 -98.79,296.34" style="fill:#52423b;fill-opacity:1;fill-rule:nonzero;stroke:none" id="path158"></path><path d="m 8372.25,1830.5 c -3.37,-19.05 -3.48,-41.21 -1.05,-64.87 7.1,-69.16 35.51,-150.36 65.34,-199.82 7.73,-12.81 15.55,-23.59 23.11,-31.35 3.15,-3.23 6.37,-6.12 9.64,-8.86 9.54,-7.99 19.56,-13.98 29.83,-18.03 60.27,-23.77 129.09,16.76 158.72,82.24 17.97,39.7 -18.03,113.87 -67.98,178.87 l -1.55,2.06 c -51.09,65.89 -116.19,121.81 -153.35,121.81 -14.21,0 -25.63,-3.8 -34.85,-10.33 -14.97,-10.61 -23.81,-28.83 -27.86,-51.72" style="fill:#52423b;fill-opacity:1;fill-rule:nonzero;stroke:none" id="path160"></path><path d="m 9349.99,1638.71 c 3.72,2.18 7.41,4.45 11.05,6.88 9.1,6.06 16.69,14.57 22.85,24.86 21.59,36.03 25.44,94.16 13.57,147.91 -4.13,18.73 -10.19,36.88 -18.07,53.42 -3.31,6.97 -6.96,13.63 -10.92,19.93 -9.11,14.48 -19.88,26.97 -32.28,36.43 -7.59,5.79 -15.76,10.51 -24.54,13.8 -38.41,14.4 -79.42,-3.11 -111.69,-36.31 -0.88,-0.9 -1.73,-1.83 -2.59,-2.75 -2.81,-3.01 -5.54,-6.15 -8.2,-9.39 -29.54,-35.93 -49.41,-85.14 -48.8,-132.42 0.24,-18.53 3.6,-36.75 10.76,-53.74 0.64,-1.5 1.31,-2.91 1.96,-4.37 23.75,-53.48 58.17,-80 95.89,-86.74 32.83,-5.87 68.11,3.2 101.01,22.49" style="fill:#52423b;fill-opacity:1;fill-rule:nonzero;stroke:none" id="path162"></path></g></g></g></svg></svg></g></svg>